<!-- Generated by IcoMoon.io -->
<svg version="1.1" xmlns="http://www.w3.org/2000/svg" width="1024" height="1024" viewBox="0 0 1024 1024">
<title>twitter</title>
<g id="icomoon-ignore">
</g>
<path fill="#4d5ae5" d="M477.616 478.88h34.112v153.504h-34.112v-153.504zM614.080 547.104h34.112v85.28h-34.112v-85.28zM341.152 598.272h34.112v34.112h-34.112v-34.112zM238.8 581.216h34.128v51.168h-34.128v-51.168z"></path>
<path fill="#2e2f42" d="M51.168 905.312h818.768c0.005 0 0.010 0 0.016 0 28.259 0 51.168-22.909 51.168-51.168v0-68.24c0-28.259-22.909-51.168-51.168-51.168-0.006 0-0.011 0-0.017 0h-17.055v-425.392l96.896-91.776c6.637 3.345 14.465 5.303 22.751 5.303 28.418 0 51.456-23.038 51.456-51.456s-23.038-51.456-51.456-51.456c-28.418 0-51.456 23.038-51.456 51.456 0 7.89 1.776 15.366 4.95 22.049l-0.133-0.312-73.008 69.2v-39.36c0-28.259-22.909-51.168-51.168-51.168v0h-682.304c-0.005 0-0.010 0-0.016 0-28.259 0-51.168 22.909-51.168 51.168 0 0.006 0 0.011 0 0.017v-0.001 511.712h-17.056c-28.259 0-51.168 22.909-51.168 51.168 0 0.006 0 0.011 0 0.017v-0.001 68.24c0 28.259 22.909 51.168 51.168 51.168v0zM972.288 154.768c9.424 0 17.064 7.64 17.064 17.064s-7.64 17.064-17.064 17.064v0c-9.424 0-17.064-7.64-17.064-17.064s7.64-17.064 17.064-17.064v0zM102.352 223.008c0-9.44 7.632-17.072 17.056-17.072h682.304c9.424 0 17.056 7.648 17.056 17.072v71.632l-34.112 32.416v-69.936c0-9.424-7.632-17.056-17.056-17.056h-614.080c-9.424 0-17.056 7.632-17.056 17.056v426.432c0 9.44 7.632 17.072 17.056 17.072h614.080c9.424 0 17.056-7.648 17.056-17.072v-309.568l34.112-32.32v393.056h-716.416v-511.712zM255.872 444.752c-0.043 0-0.093 0-0.144 0-28.259 0-51.168 22.909-51.168 51.168s22.909 51.168 51.168 51.168c13.827 0 26.374-5.485 35.582-14.397l-0.014 0.013 59.296 29.76c6.88 3.44 15.248 1.824 20.368-3.936l126.032-141.808 123.904 92.848c6.656 4.976 15.936 4.448 21.952-1.264l107.68-102v260.192h-579.936v-392.32h579.968v85.12l-120.704 114.304-124.96-93.68c-2.812-2.119-6.365-3.393-10.215-3.393-5.059 0-9.604 2.201-12.73 5.697l-0.014 0.016-127.776 143.76-47.776-23.888c0.352-2.048 0.576-4.112 0.656-6.192-0.009-28.256-22.912-51.159-51.167-51.168h-0.001zM272.928 495.92c0 9.424-7.64 17.064-17.064 17.064s-17.064-7.64-17.064-17.064v0c0-9.424 7.64-17.064 17.064-17.064s17.064 7.64 17.064 17.064v0zM375.264 768.848h170.576v17.056c0 9.424-7.632 17.056-17.056 17.056h-136.464c-9.42 0-17.056-7.636-17.056-17.056v0-17.056zM34.112 785.92c0-9.424 7.648-17.056 17.056-17.056h289.984v17.056c0 0.005 0 0.010 0 0.016 0 28.259 22.909 51.168 51.168 51.168h136.48c28.259 0 51.168-22.909 51.168-51.168 0-0.006 0-0.011 0-0.017v0.001-17.056h289.952c9.44 0 17.072 7.632 17.072 17.056v68.24c0 9.408-7.648 17.056-17.072 17.056h-818.752c-9.42 0-17.056-7.636-17.056-17.056v0-68.24z"></path>
</svg>
