<!-- Generated by IcoMoon.io -->
<svg version="1.1" xmlns="http://www.w3.org/2000/svg" width="1024" height="1024" viewBox="0 0 1024 1024">
<title>twitter</title>
<g id="icomoon-ignore">
</g>
<path fill="#2e2f42" d="M1001.488 489.632c-0.048-270.464-219.36-489.68-489.856-489.632-270.464 0.048-489.68 219.36-489.632 489.856 0.055 217.216 141.51 401.379 337.321 465.451l3.463 0.981c1.92 0.608 3.952 0.928 5.968 0.912 3.872 0 7.648-1.040 10.96-2.992 4.32-2.56 7.552-6.624 9.072-11.408l123.68-392c33.715-0.123 60.999-27.483 60.999-61.216 0-33.809-27.407-61.216-61.216-61.216-9.7 0-18.872 2.256-27.022 6.272l0.359-0.16-163.392-163.408c-3.692-3.69-8.792-5.972-14.424-5.972-11.269 0-20.404 9.135-20.404 20.404 0 5.636 2.285 10.739 5.98 14.432v0l163.312 163.488c-3.865 7.712-6.127 16.802-6.127 26.422 0 19.248 9.059 36.38 23.145 47.366l0.134 0.1-117.84 373.536c-232.896-85.792-352.144-344.128-266.352-577.024 85.792-232.864 344.144-352.144 577.024-266.352 232.88 85.808 352.128 344.144 266.352 577.024-43.039 114.598-128.116 204.992-235.981 254.005l-2.819 1.147-12.736-59.984c-2.024-9.303-10.188-16.169-19.956-16.169-5.224 0-9.99 1.964-13.599 5.194l0.020-0.017-122.784 109.616c-4.214 3.754-6.855 9.196-6.855 15.254 0 9.069 5.918 16.756 14.102 19.409l0.144 0.040 156.752 50.032c1.87 0.624 4.022 0.984 6.259 0.984 11.267 0 20.4-9.133 20.4-20.4 0-1.51-0.164-2.982-0.475-4.399l0.025 0.135-12.512-58.848c176.886-75.98 298.513-248.694 298.513-449.816 0-0.363 0-0.726-0.001-1.089v0.057zM511.744 469.232c11.275 0 20.416 9.141 20.416 20.416s-9.141 20.416-20.416 20.416v0c-11.275 0-20.416-9.141-20.416-20.416s9.141-20.416 20.416-20.416v0zM578.96 944.88l69.888-62.336 19.296 90.88-89.184-28.544z"></path>
<path fill="#4d5ae5" d="M491.344 101.92v40.8c0 11.267 9.133 20.4 20.4 20.4s20.4-9.133 20.4-20.4v-40.8c-0.446-10.922-9.409-19.608-20.4-19.608s-19.954 8.686-20.399 19.568l-0.001 0.040zM124.032 469.232c-11.267 0-20.4 9.133-20.4 20.4s9.133 20.4 20.4 20.4h40.8c11.267 0 20.4-9.133 20.4-20.4s-9.133-20.4-20.4-20.4h-40.8zM899.456 510.048c11.267 0 20.4-9.133 20.4-20.4s-9.133-20.4-20.4-20.4h-40.8c-10.922 0.446-19.608 9.409-19.608 20.4s8.686 19.954 19.568 20.399l0.040 0.001h40.8z"></path>
</svg>
