<!-- Generated by IcoMoon.io -->
<svg version="1.1" xmlns="http://www.w3.org/2000/svg" width="1024" height="1024" viewBox="0 0 1024 1024">
<title>twitter</title>
<g id="icomoon-ignore">
</g>
<path fill="#4d5ae5" d="M1023.168 144.768c-2.040-6.11-7.271-10.621-13.666-11.588l-0.094-0.012-61.152-8.896-27.36-55.392c-5.728-11.68-24.848-11.68-30.592 0l-27.36 55.392-61.12 8.896c-8.319 1.229-14.631 8.319-14.631 16.883 0 4.79 1.975 9.12 5.155 12.218l0.004 0.004 44.24 43.12-10.448 60.896c-1.088 6.4 1.536 12.864 6.784 16.688 5.312 3.856 12.24 4.336 17.984 1.296l54.688-28.752 54.688 28.752c2.292 1.22 5.013 1.936 7.9 1.936 9.437 0 17.088-7.651 17.088-17.088 0-1-0.086-1.981-0.251-2.934l0.015 0.102-10.432-60.896 44.256-43.12c3.179-3.111 5.15-7.445 5.15-12.239 0-1.881-0.304-3.692-0.864-5.386l0.035 0.121zM944.352 187.232c-4 3.904-5.856 9.568-4.896 15.104l6.112 35.648-32.016-16.816c-2.304-1.243-5.043-1.973-7.952-1.973s-5.648 0.73-8.043 2.018l0.091-0.045-32.016 16.816 6.112-35.648c0.155-0.864 0.243-1.858 0.243-2.873 0-4.793-1.973-9.125-5.152-12.228l-0.003-0.003-25.92-25.264 35.808-5.2c5.568-0.8 10.368-4.304 12.848-9.344l16-32.416 16.032 32.416c2.496 5.040 7.296 8.544 12.864 9.344l35.792 5.2-25.888 25.264zM836.272 656.704h-34.144v34.144h34.144v-34.144zM836.272 724.976h-34.144v34.144h34.144v-34.16z"></path>
<path fill="#4d5ae5" d="M870.4 690.848h-34.128v34.128h34.128v-34.128zM802.144 690.848h-34.144v34.128h34.144v-34.128zM716.8 844.448h-34.128v34.128h34.128v-34.128zM716.8 912.72h-34.128v34.128h34.128v-34.128zM750.944 878.576h-34.144v34.144h34.144v-34.16z"></path>
<path fill="#4d5ae5" d="M682.672 878.576h-34.144v34.144h34.144v-34.16zM512 776.176h-34.128v34.144h34.128v-34.16zM512 844.448h-34.128v34.128h34.128v-34.128zM546.128 810.32h-34.128v34.128h34.128v-34.128zM477.872 810.32h-34.144v34.128h34.144v-34.128zM187.728 195.904h-34.128v34.128h34.128v-34.128zM187.728 264.16h-34.128v34.144h34.128v-34.128zM221.856 230.032h-34.128v34.144h34.128v-34.144zM153.6 230.032h-34.144v34.144h34.144v-34.144z"></path>
<path fill="#2e2f42" d="M790.88 453.104c-8.957-12.052-22.357-20.368-37.732-22.526l-0.3-0.034c-2.441-0.371-5.257-0.583-8.123-0.583-13.149 0-25.255 4.464-34.885 11.959l0.128-0.096-40.064 30.704-60.72 45.36-43.456-17.312c77.472-34.752 131.632-112.256 131.632-202.24 0-122.336-99.92-221.856-222.752-221.856s-222.768 99.52-222.768 221.856c0 44.336 13.248 85.568 35.84 120.272l-88.608-0.768c-0.272 0-0.48 0.144-0.752 0.16-1.8 0.077-3.494 0.429-5.075 1.013l0.115-0.037c-0.416 0.16-0.832 0.24-1.232 0.432-0.192 0.080-0.4 0.096-0.608 0.208l-103.488 51.088-60.592 29.152c-0.776 0.349-1.438 0.723-2.061 1.149l0.045-0.029c-15.41 10.357-25.415 27.724-25.415 47.427 0 9.492 2.322 18.441 6.428 26.312l-0.149-0.315c7.040 13.728 19.040 23.84 33.792 28.464 5.137 1.685 11.049 2.657 17.189 2.657 9.86 0 19.135-2.507 27.221-6.918l-0.298 0.149 44.416-23.616 72.448-37.424 43.424-0.24-174.144 173.28c0 0.032-0.032 0.032-0.048 0.048l-42.832 42.656c-9.683 9.571-15.68 22.853-15.68 37.536 0 0.056 0 0.112 0 0.169v-0.009c0 14.24 5.552 27.632 15.68 37.712 10.4 10.352 24.064 15.52 37.728 15.52 13.696 0 27.344-5.168 37.76-15.52l42.064-41.872 55.712-41.6 28.816 28.704-99.264 98.832c-9.683 9.571-15.68 22.853-15.68 37.536 0 0.051 0 0.101 0 0.152v-0.008c0 14.24 5.568 27.632 15.68 37.728 10.4 10.336 24.080 15.52 37.76 15.52 13.664 0 27.36-5.184 37.76-15.52l111.424-110.928c0-0.032 0-0.048 0.032-0.064l32.304-32-0.128-0.112c0.208-0.208 0.496-0.272 0.704-0.496l165.312-181.056 111.072 15.792c0.651 0.089 1.404 0.14 2.168 0.14 2.245 0 4.387-0.439 6.345-1.237l-0.113 0.041c0.56-0.208 1.056-0.48 1.6-0.752 0.608-0.304 1.248-0.48 1.824-0.864l102.832-68.272c0.384-0.256 0.576-0.656 0.944-0.944 0.4-0.32 0.912-0.448 1.28-0.8l40.704-38.128c11.112-10.416 18.035-25.185 18.035-41.57 0-12.81-4.231-24.632-11.372-34.145l0.106 0.147zM68.16 568.64c-5.536 2.976-11.84 3.568-17.856 1.664-9.431-2.968-16.151-11.633-16.151-21.868 0-7.547 3.654-14.24 9.289-18.408l0.062-0.044 42.048-20.224 10.112 29.584 4.256 12.416-31.76 16.88zM180.080 510.16l-49.552 25.6-8.16-23.904-5.872-17.168 64.848-32-1.264 47.472zM663.264 298.304c0 29.392-7.008 57.12-19.168 81.904l-133.808-60.768c-1.389-18.407-10.952-34.328-25.030-44.291l-0.186-0.125 46.848-155.52c76.080 24.176 131.344 95.152 131.344 178.784zM286.016 298.304c0-103.52 84.624-187.744 188.624-187.744 8.096 0 16 0.688 23.84 1.68l-45.824 152.112c-0.608 0-1.2-0.176-1.824-0.176-0.010 0-0.021 0-0.032 0-33.019 0-59.797 26.722-59.888 59.719v0.009c0.091 33.006 26.869 59.728 59.888 59.728 0.011 0 0.023 0 0.034 0h-0.002c22.224 0 41.424-12.256 51.776-30.224l123.6 56.16c-34.4 46.288-89.44 76.48-151.568 76.48-104 0-188.624-84.24-188.624-187.744zM476.624 323.904c0 14.112-11.584 25.6-25.792 25.6-0.019 0-0.042 0-0.064 0-14.164 0-25.655-11.446-25.728-25.593v-0.007c0-14.112 11.568-25.6 25.792-25.6s25.792 11.488 25.792 25.6zM78.864 804.672c-3.515 3.471-8.347 5.615-13.68 5.615-5.317 0-10.137-2.131-13.65-5.586l0.003 0.003c-3.486-3.445-5.646-8.226-5.646-13.512s2.159-10.067 5.644-13.51l0.002-0.002 30.784-30.672 27.232 27.12-30.672 30.56zM181.712 924.144c-3.515 3.484-8.354 5.638-13.696 5.638-5.326 0-10.153-2.14-13.666-5.608l0.002 0.002c-3.483-3.447-5.639-8.228-5.639-13.512s2.156-10.065 5.637-13.51l0.002-0.002 30.816-30.688 27.264 27.12-30.72 30.56zM293.136 813.152l-0.064 0.032-56.48 56.32-27.248-27.12 56.432-56.192s0.032 0 0.048-0.032c1.28-1.28 2.080-2.816 2.88-4.32 0.208-0.448 0.64-0.832 0.832-1.28 0.528-1.328 0.608-2.736 0.8-4.128 0.112-0.784 0.448-1.52 0.448-2.32 0-1.136-0.4-2.24-0.64-3.376-0.208-1.024-0.208-2.080-0.592-3.056-0.64-1.6-1.76-3.024-2.928-4.4-0.32-0.384-0.432-0.864-0.8-1.216h-0.016l-0.032-0.064-51.424-51.2c-0.544-0.544-1.248-0.768-1.856-1.232-0.813-0.67-1.725-1.281-2.695-1.797l-0.089-0.043c-0.849-0.406-1.846-0.763-2.883-1.017l-0.109-0.023c-0.957-0.303-2.077-0.529-3.232-0.635l-0.064-0.005c-0.195-0.008-0.424-0.013-0.653-0.013-0.842 0-1.669 0.063-2.478 0.184l0.091-0.011c-1.238 0.113-2.375 0.339-3.465 0.672l0.121-0.032c-1.154 0.414-2.147 0.9-3.075 1.479l0.067-0.039c-0.64 0.352-1.36 0.48-1.952 0.912l-56.752 42.368-28.816-28.704 76.768-76.368 139.52 137.248-29.664 29.408zM511.328 588.608c-0.48-0.064-0.96 0.128-1.44 0.096-0.248-0.013-0.539-0.021-0.831-0.021-1.007 0-1.992 0.089-2.95 0.26l0.101-0.015c-0.976 0.16-1.904 0.352-2.832 0.672-1.183 0.428-2.202 0.935-3.151 1.542l0.063-0.038c-0.96 0.576-1.824 1.2-2.656 1.968-0.416 0.352-0.912 0.528-1.28 0.928l-150.352 164.672-138.496-136.224 90.656-90.176c3.081-3.090 4.986-7.355 4.986-12.064 0-9.437-7.651-17.088-17.088-17.088-0.015 0-0.030 0-0.044 0h0.002l-70.992 0.416 0.88-51.44 99.328 0.848c40.434 41.494 96.864 67.232 159.305 67.232 0.036 0 0.072 0 0.108 0h-0.006c14 0 27.648-1.44 40.944-3.92 1.28 1.024 2.544 2.064 4.16 2.72l77.104 30.72 10.576 52.576-96.096-13.664zM640.656 594.32l-10.032-49.856 46.288-34.56 30.304 40.208-66.56 44.208zM760.768 503.728l-26.816 25.12-29.792-39.568 26.608-20.384c4.96-3.84 11.216-5.376 17.36-4.576 6.192 0.864 11.648 4.096 15.36 9.088 6.944 9.344 5.76 22.368-2.72 30.32z"></path>
<path fill="#2e2f42" d="M435.264 593.408l-68.576-68.272c-3.084-3.074-7.34-4.975-12.040-4.975s-8.956 1.901-12.040 4.976l-68.56 68.272c-3.089 3.101-4.999 7.38-4.999 12.104s1.91 9.003 5 12.105l-0.001-0.001 68.56 68.256c3.084 3.074 7.34 4.975 12.040 4.975s8.956-1.901 12.040-4.976l68.576-68.256c3.109-3.093 5.033-7.374 5.033-12.104s-1.924-9.011-5.032-12.103l-0.001-0.001zM354.656 649.696l-44.368-44.192 44.368-44.176 44.4 44.176-44.4 44.192zM549.248 162.272l-8.24 33.136c2.272 0.56 55.616 14.464 55.616 68.768h34.128c0-64.544-53.296-94.896-81.488-101.92zM630.752 298.304h-34.128v34.144h34.128v-34.144z"></path>
</svg>
